<svg width="800" height="800" viewBox="0 0 800 800" fill="none" xmlns="http://www.w3.org/2000/svg">
<path d="M268.854 631.44L485.521 148.107C491.168 135.508 505.961 129.873 518.56 135.521C530.109 140.698 535.806 153.559 532.325 165.371L531.146 168.56L314.479 651.893C308.832 664.492 294.039 670.127 281.44 664.479C269.891 659.302 264.194 646.441 267.675 634.629L268.854 631.44ZM73.989 382.322L215.656 240.656C225.419 230.893 241.248 230.893 251.011 240.656C259.887 249.531 260.693 263.42 253.432 273.207L251.011 276.011L127.022 400L251.011 523.989C260.774 533.752 260.774 549.581 251.011 559.344C242.135 568.22 228.247 569.027 218.46 561.765L215.656 559.344L73.989 417.678C65.1135 408.802 64.3066 394.913 71.5684 385.126L73.989 382.322ZM548.989 240.656C557.865 231.78 571.753 230.973 581.54 238.235L584.344 240.656L726.011 382.322C734.887 391.198 735.693 405.087 728.432 414.874L726.011 417.678L584.344 559.344C574.581 569.107 558.752 569.107 548.989 559.344C540.113 550.469 539.307 536.58 546.568 526.793L548.989 523.989L672.978 400L548.989 276.011C539.226 266.248 539.226 250.419 548.989 240.656Z" fill="#F4F4F4"/>
</svg>
