<svg width="371" height="387" viewBox="0 0 371 387" fill="none" xmlns="http://www.w3.org/2000/svg">
<path d="M108.95 30.0794C83.498 37.4232 60.2594 51.5072 41.9502 70.6212C36.8196 75.953 32.0914 81.7878 27.7656 87.8238C27.4638 88.2262 27.7656 89.8358 27.7656 90.3388C27.7656 90.9424 27.7656 91.546 27.7656 92.1496C27.7656 92.2502 27.8662 92.7532 27.7656 92.8538C43.0568 71.2248 64.0822 53.821 88.1256 42.8556C94.8658 39.737 101.908 37.222 109.05 35.1094C109.151 35.1094 109.05 32.7956 109.05 32.5944C108.95 32.3932 108.849 30.18 108.95 30.0794Z" fill="white" fill-opacity="0.56"/>
<path d="M15.8948 111.666C7.545 129.774 2.9174 148.989 1.1066 168.807C0.603599 174.44 0.3018 180.175 0 185.909C0 186.915 0 188.021 0 189.027C0 189.53 0 190.033 0 190.536C0 190.536 0 191.039 0 190.838C0.503 180.577 1.2072 170.215 2.8168 160.055C4.3258 150.498 6.63961 141.041 9.85881 131.887C11.6696 126.756 13.6816 121.726 15.9954 116.797C16.2972 116.193 15.9954 114.885 15.9954 114.282C15.9954 113.678 15.9954 113.074 15.9954 112.471C15.8948 112.27 15.7942 111.867 15.8948 111.666Z" fill="white" fill-opacity="0.56"/>
<path d="M1.50898 214.379C2.71618 234.901 7.24319 255.222 14.7882 274.437C17.0014 279.869 19.4158 285.302 22.0314 290.533C22.0314 290.432 22.0314 289.829 22.0314 289.829C22.0314 289.225 22.0314 288.621 22.0314 288.018C22.0314 287.414 22.0314 286.811 22.0314 286.207C22.0314 286.006 22.132 285.603 22.0314 285.503C12.7762 267.194 6.43839 247.476 3.31979 227.255C2.41439 221.421 1.81079 215.485 1.40839 209.55C1.40839 209.248 1.40839 209.952 1.40839 209.852C1.40839 210.355 1.40839 210.858 1.40839 211.361C1.40839 212.266 1.40838 213.373 1.50898 214.379Z" fill="white" fill-opacity="0.56"/>
<path d="M34.1034 308.238C41.0448 315.683 47.9862 323.127 54.9276 330.572C58.4486 334.294 61.869 338.117 65.39 341.839C68.6092 345.259 71.8284 348.478 75.6512 351.195C79.977 354.213 84.6046 356.627 89.3328 358.941C89.2322 358.84 89.3328 356.627 89.3328 356.426C89.3328 356.124 89.534 354.011 89.3328 353.911C85.2082 351.798 81.1842 349.786 77.3614 347.271C73.438 344.656 69.917 341.537 66.6978 338.217C59.7564 330.974 52.9156 323.53 46.0748 316.085C42.0508 311.86 38.1274 307.534 34.1034 303.309C34.3046 303.611 34.1034 305.422 34.1034 305.824C34.1034 306.428 34.1034 307.031 34.1034 307.635C34.1034 307.635 34.0028 308.138 34.1034 308.238Z" fill="white" fill-opacity="0.56"/>
<path d="M126.354 375.339C149.391 380.57 172.63 385.801 196.371 386.203C217.9 386.606 239.227 382.481 258.743 373.327C269.105 368.397 278.863 362.261 287.716 354.917C288.018 354.716 287.716 352.804 287.716 352.402C287.716 352.1 287.414 350.088 287.716 349.887C271.922 362.965 253.21 372.421 233.392 377.351C211.059 382.783 188.021 381.878 165.487 378.256C152.308 376.143 139.331 373.226 126.454 370.309C126.655 370.409 125.951 375.238 126.354 375.339Z" fill="white" fill-opacity="0.56"/>
<path d="M315.783 333.087C323.932 323.127 332.181 313.268 340.33 303.309C344.153 298.581 347.774 293.752 350.591 288.42C353.508 282.988 355.52 277.153 357.532 271.318C359.846 264.477 362.16 257.536 364.574 250.595C364.776 249.89 364.574 248.784 364.574 248.08C364.574 247.375 364.273 246.269 364.574 245.565C362.462 251.701 360.45 257.838 358.337 263.974C356.325 269.809 354.414 275.644 351.698 281.278C346.265 292.444 337.614 301.699 329.767 311.156C325.139 316.789 320.512 322.423 315.884 328.057C315.582 328.358 315.884 330.069 315.884 330.572C315.884 331.175 315.884 331.779 315.884 332.382C315.783 332.483 315.884 332.986 315.783 333.087Z" fill="white" fill-opacity="0.56"/>
<path d="M367.592 218.101C370.007 204.721 370.51 191.039 369.705 177.458C368.8 164.079 366.184 150.799 361.758 138.124C359.243 130.981 356.225 124.04 352.603 117.3C352.603 117.4 352.603 118.004 352.603 118.004C352.603 118.607 352.603 119.211 352.603 119.815C352.603 120.418 352.603 121.022 352.603 121.625C352.603 121.827 352.502 122.229 352.603 122.33C358.337 133.094 362.764 144.663 365.681 156.534C367.089 162.368 368.196 168.203 368.9 174.139C369.303 177.257 369.604 180.476 369.705 183.595C369.806 185.003 369.806 186.512 369.906 187.921C369.906 188.323 369.906 188.826 369.906 189.229C369.906 190.134 369.906 187.921 369.906 189.43C369.906 190.335 369.906 191.341 369.806 192.247C369.504 199.188 368.8 206.129 367.492 212.97C367.291 214.68 367.894 216.491 367.592 218.101Z" fill="white" fill-opacity="0.56"/>
<path d="M338.318 96.576C331.678 73.8404 314.677 56.4366 296.77 41.9502C291.338 37.6244 285.805 33.3992 280.272 29.2746C280.473 29.3752 280.272 31.4878 280.272 31.7896C280.272 32.0914 279.97 34.1034 280.272 34.3046C299.184 48.4892 318.801 63.2774 330.873 84.2022C333.992 89.7352 336.608 95.4694 338.418 101.606C338.217 100.902 338.418 99.7952 338.418 99.091C338.318 98.2862 338.519 97.2802 338.318 96.576Z" fill="white" fill-opacity="0.56"/>
<path d="M252.405 19.8182C232.084 11.6696 210.858 5.7342 189.229 2.3138C183.193 1.3078 177.056 0.6036 170.919 0C171.02 0 170.718 5.03 170.919 5.03C192.75 7.042 214.278 11.569 235.002 18.4098C240.836 20.3212 246.571 22.4338 252.305 24.7476C252.204 24.7476 252.305 22.4338 252.305 22.2326C252.405 22.132 252.607 19.9188 252.405 19.8182Z" fill="white" fill-opacity="0.56"/>
<path d="M132.691 6.74017C122.128 8.04797 111.565 10.3618 101.405 13.7822C96.3748 15.3918 91.4454 17.3032 86.6166 19.4158C82.492 21.2266 78.468 23.138 74.7458 25.653C70.7218 28.4698 67.2008 31.9908 65.0882 36.4172C64.7864 37.0208 65.0882 38.3286 65.0882 38.9322C65.0882 39.5358 65.0882 40.1394 65.0882 40.743C65.0882 40.9442 65.1888 41.3466 65.0882 41.4472C68.911 33.2986 77.0596 28.671 84.9064 25.15C94.4634 20.8242 104.523 17.4038 114.785 14.9894C120.619 13.581 126.655 12.575 132.591 11.7702C132.893 11.6696 132.49 6.74017 132.691 6.74017Z" fill="white" fill-opacity="0.56"/>
<path d="M125.75 32.695C143.154 31.0854 160.759 30.7836 178.263 31.689C178.163 31.689 178.364 26.659 178.263 26.659C160.759 25.653 143.254 25.9548 125.75 27.665C125.649 27.665 125.951 32.695 125.75 32.695Z" fill="white" fill-opacity="0.56"/>
<path d="M206.129 33.4998C231.179 35.0088 255.524 43.6604 276.046 58.1468C281.781 62.2714 287.213 66.7984 292.344 71.7278C292.142 71.5266 292.344 69.6152 292.344 69.2128C292.344 68.6092 292.344 68.0056 292.344 67.402C292.344 67.3014 292.444 66.6978 292.344 66.6978C274.437 49.1934 251.601 36.9202 227.155 31.4878C220.213 29.9788 213.272 28.9728 206.23 28.5704C206.129 28.4698 205.928 33.3992 206.129 33.4998Z" fill="white" fill-opacity="0.56"/>
<path d="M306.428 85.1076C319.405 105.127 332.483 125.448 340.229 148.083C342.342 154.32 344.052 160.759 345.259 167.298C344.957 165.688 345.561 163.877 345.259 162.268C341.034 138.627 329.767 117.199 317.192 96.9784C313.671 91.2442 310.049 85.6106 306.428 79.977C306.428 80.0776 306.428 80.6812 306.428 80.6812C306.428 81.2848 306.428 81.8884 306.428 82.492C306.428 83.0956 306.428 83.6992 306.428 84.3028C306.428 84.504 306.327 84.9064 306.428 85.1076Z" fill="white" fill-opacity="0.56"/>
<path d="M347.472 190.838C348.378 201.301 348.177 210.858 346.969 221.421C345.863 231.38 343.951 241.138 341.336 250.796C341.135 251.5 341.336 252.607 341.336 253.311C341.336 254.015 341.537 255.122 341.336 255.826C346.265 237.818 348.277 219.509 348.076 200.898C348.076 195.868 347.875 190.838 347.372 185.808C347.674 187.518 347.372 189.229 347.472 190.838Z" fill="white" fill-opacity="0.56"/>
<path d="M335.3 272.425C327.151 288.32 318.701 304.516 305.321 316.789C305.019 316.991 305.321 318.902 305.321 319.304C305.321 319.908 305.321 320.512 305.321 321.115C305.321 321.216 305.422 321.819 305.321 321.819C318.701 309.647 327.151 293.35 335.3 277.455C335.602 276.952 335.3 275.543 335.3 274.94C335.3 274.336 335.3 273.733 335.3 273.129C335.4 272.928 335.3 272.525 335.3 272.425Z" fill="white" fill-opacity="0.56"/>
<path d="M287.012 332.885C266.389 343.147 244.559 350.893 222.125 355.822C215.787 357.231 209.449 358.438 203.011 359.343C202.709 359.343 203.212 364.373 203.011 364.373C225.746 360.953 248.08 354.716 269.407 345.963C275.443 343.448 281.278 340.732 287.112 337.915C287.314 337.815 287.112 335.702 287.112 335.4C287.012 335.199 286.811 332.986 287.012 332.885Z" fill="white" fill-opacity="0.56"/>
<path d="M172.63 357.432C151.705 355.219 131.182 349.484 112.169 340.531C106.737 338.016 101.505 335.199 96.3748 332.081C96.576 332.181 96.3748 334.294 96.3748 334.596C96.3748 334.897 96.1736 337.01 96.3748 337.111C114.483 347.875 134.301 355.52 154.924 359.746C160.759 360.953 166.694 361.858 172.63 362.462C172.428 362.462 172.831 357.532 172.63 357.432Z" fill="white" fill-opacity="0.56"/>
<path d="M77.965 319.003C58.4486 306.428 42.4532 288.722 31.9908 268.099C28.9728 262.264 26.4578 256.128 24.4458 249.89C24.647 250.494 24.4458 251.701 24.4458 252.405C24.4458 253.11 24.2446 254.216 24.4458 254.92C31.689 276.952 44.9682 296.871 62.2714 312.162C67.2008 316.488 72.432 320.512 77.965 324.033C77.7638 323.932 77.965 321.819 77.965 321.518C77.965 321.216 78.1662 319.204 77.965 319.003Z" fill="white" fill-opacity="0.56"/>
<path d="M20.9248 232.487C19.7176 220.515 19.3152 208.544 19.9188 196.572C20.4218 184.702 21.7296 172.931 23.7416 161.262C24.8482 154.622 26.2566 147.983 27.8662 141.444C28.0674 140.739 27.8662 139.733 27.8662 138.929C27.8662 138.124 27.665 137.118 27.8662 136.414C21.5284 162.368 19.0134 188.927 19.617 215.586C19.8182 222.93 20.2206 230.273 20.9248 237.517C20.7236 235.806 21.0254 234.096 20.9248 232.487Z" fill="white" fill-opacity="0.56"/>
<path d="M37.0208 121.022C43.1574 102.813 54.1228 86.2142 68.408 73.438C72.432 69.8164 76.7578 66.4966 81.2848 63.4786C81.486 63.378 81.2848 61.2654 81.2848 60.9636C81.2848 60.6618 81.0836 58.5492 81.2848 58.4486C65.1888 69.1122 52.1108 83.9004 43.3586 101.002C40.8436 105.831 38.8316 110.861 37.0208 115.992C36.8196 116.696 37.0208 117.803 37.0208 118.507C37.0208 119.211 37.222 120.318 37.0208 121.022Z" fill="white" fill-opacity="0.56"/>
<path d="M112.672 55.9336C137.42 49.797 163.173 47.6844 188.524 49.8976C195.667 50.5012 202.81 51.5072 209.852 52.815C209.55 52.815 210.153 47.8856 209.852 47.785C184.802 43.258 158.948 42.8556 133.697 46.6784C126.655 47.785 119.613 49.1934 112.571 50.9036C112.27 51.0042 113.074 55.833 112.672 55.9336Z" fill="white" fill-opacity="0.56"/>
<path d="M235.806 60.6618C246.068 65.1888 256.329 69.8164 266.59 74.3434C271.218 76.456 275.543 78.6692 279.165 82.2908C282.988 86.013 286.308 90.3388 289.829 94.3628C293.853 99.1916 297.776 104.02 301.699 108.849C301.699 108.849 301.699 108.044 301.699 108.145C301.699 107.541 301.699 106.938 301.699 106.334C301.699 105.731 301.699 105.127 301.699 104.523C301.699 104.423 301.8 103.92 301.699 103.819C294.959 95.3688 288.118 86.7172 280.775 78.7698C277.254 75.0476 273.33 72.3314 268.703 70.1182C263.673 67.8044 258.441 65.5912 253.411 63.2774C247.577 60.6618 241.742 58.0462 235.907 55.5312C236.008 55.6318 235.907 57.845 235.907 58.0462C235.806 58.4486 235.605 60.5612 235.806 60.6618Z" fill="white" fill-opacity="0.56"/>
<path d="M313.771 126.454C323.429 143.757 333.187 161.564 336.004 181.382C336.205 182.79 336.406 184.199 336.507 185.607C336.608 186.311 336.608 187.116 336.708 187.82C336.708 188.223 337.01 189.832 336.809 190.134C336.809 190.134 336.909 188.021 336.809 189.128C336.809 189.53 336.809 189.933 336.809 190.436C336.809 191.241 336.708 192.045 336.608 192.951C336.507 194.46 336.306 195.868 336.105 197.377C335.803 198.987 336.406 200.798 336.105 202.407C336.909 196.874 337.01 191.341 336.909 185.808C336.809 180.275 336.004 174.843 334.797 169.41C332.382 158.445 327.956 148.083 322.825 138.124C319.908 132.49 316.89 126.957 313.771 121.424C313.771 121.525 313.771 122.128 313.771 122.128C313.771 122.732 313.771 123.336 313.771 123.939C313.771 124.543 313.771 125.146 313.771 125.75C313.771 125.851 313.671 126.253 313.771 126.454Z" fill="white" fill-opacity="0.56"/>
<path d="M338.217 224.74C336.105 243.351 329.063 261.359 317.997 276.449C314.878 280.674 311.458 284.698 307.735 288.521C307.434 288.823 307.735 290.633 307.735 291.036C307.735 291.639 307.735 292.243 307.735 292.847C307.735 292.947 307.836 293.551 307.735 293.551C320.914 280.171 330.471 263.471 335.3 245.363C336.708 240.233 337.614 235.102 338.217 229.77C338.418 228.06 338.016 226.35 338.217 224.74Z" fill="white" fill-opacity="0.56"/>
<path d="M293.651 303.913C279.97 315.381 264.075 324.133 246.973 329.465C242.144 330.974 237.215 332.181 232.285 333.187C231.984 333.288 232.587 338.117 232.285 338.217C249.79 334.797 266.59 327.855 281.479 317.997C285.704 315.18 289.728 312.162 293.551 308.943C293.853 308.741 293.551 306.83 293.551 306.428C293.651 306.025 293.35 304.114 293.651 303.913Z" fill="white" fill-opacity="0.56"/>
<path d="M205.727 337.01C184.702 339.927 162.771 340.129 142.248 333.891C136.414 332.081 130.881 329.867 125.448 327.051C125.549 327.151 125.448 329.364 125.448 329.566C125.448 329.867 125.247 331.98 125.448 332.081C144.462 342.04 166.191 344.857 187.418 343.851C193.554 343.549 199.59 342.945 205.727 342.141C206.029 342.04 205.526 337.111 205.727 337.01Z" fill="white" fill-opacity="0.56"/>
<path d="M102.411 316.991C84.1016 309.144 68.2068 296.166 56.6378 279.97C53.4186 275.443 50.5012 270.614 48.0868 265.584C48.0868 265.685 48.0868 266.288 48.0868 266.288C48.0868 266.892 48.0868 267.495 48.0868 268.099C48.0868 268.703 48.0868 269.306 48.0868 269.91C48.0868 270.111 47.9862 270.513 48.0868 270.614C56.9396 288.42 70.7218 303.611 87.6226 314.274C92.3508 317.292 97.2802 319.807 102.411 322.021C102.31 322.021 102.411 319.707 102.411 319.506C102.411 319.304 102.612 317.091 102.411 316.991Z" fill="white" fill-opacity="0.56"/>
<path d="M40.1394 237.215C38.228 223.634 37.4232 210.053 38.3286 196.371C39.1334 182.79 41.246 169.209 44.5658 155.93C46.3766 148.486 48.6904 141.142 51.306 133.999C51.5072 133.295 51.306 132.188 51.306 131.484C51.306 130.78 51.0042 129.673 51.306 128.969C46.1754 143.053 42.4532 157.64 40.3406 172.529C38.1274 187.317 37.5238 202.307 38.0268 217.195C38.3286 225.545 39.0328 233.895 40.24 242.245C39.9382 240.635 40.3406 238.824 40.1394 237.215Z" fill="white" fill-opacity="0.56"/>
<path d="M59.9576 120.318C73.5386 101.002 88.8298 79.8764 112.571 72.8344C119.513 70.7218 126.857 70.42 133.697 68.2068C133.798 68.2068 133.697 65.893 133.697 65.6918C133.697 65.4906 133.597 63.1768 133.697 63.1768C127.561 65.1888 121.022 65.5912 114.785 67.2008C109.252 68.6092 103.92 70.923 98.9904 73.8404C88.7292 79.977 80.2788 88.528 72.8344 97.8838C68.3074 103.517 64.0822 109.453 59.9576 115.388C59.6558 115.791 59.9576 117.4 59.9576 117.903C59.9576 118.507 59.9576 119.11 59.9576 119.714C59.9576 119.714 60.0582 120.217 59.9576 120.318Z" fill="white" fill-opacity="0.56"/>
<path d="M158.344 68.0056C185.305 66.4966 213.674 67.2008 238.02 80.3794C244.156 83.6992 249.79 87.7232 254.82 92.552C254.619 92.3508 254.82 90.4394 254.82 90.037C254.82 89.4334 254.82 88.8298 254.82 88.2262C254.82 88.1256 254.92 87.522 254.82 87.522C235.605 69.2128 208.544 63.1768 182.79 62.4726C174.642 62.2714 166.493 62.5732 158.344 62.9756C158.143 62.9756 158.344 68.0056 158.344 68.0056Z" fill="white" fill-opacity="0.56"/>
<path d="M273.632 108.246C289.728 122.128 303.108 139.13 312.765 158.043C315.482 163.374 317.896 168.807 320.009 174.44C319.807 173.837 320.009 172.63 320.009 171.925C320.009 171.221 320.21 170.115 320.009 169.41C312.464 149.492 301.096 131.182 286.509 115.589C282.384 111.264 278.159 107.038 273.632 103.216C273.833 103.417 273.632 105.429 273.632 105.731C273.632 106.334 273.632 106.938 273.632 107.541C273.531 107.541 273.531 108.145 273.632 108.246Z" fill="white" fill-opacity="0.56"/>
<path d="M322.121 191.341C322.624 196.271 323.027 201.2 323.328 206.23C323.63 211.26 323.53 215.485 322.926 220.716C321.819 230.273 318.6 239.126 313.771 247.375C311.055 252.003 307.937 256.429 304.919 260.856C304.617 261.258 304.919 262.868 304.919 263.371C304.919 263.974 304.919 264.578 304.919 265.182C304.919 265.282 305.019 265.785 304.919 265.886C311.156 256.932 317.393 247.878 320.612 237.315C323.731 226.853 323.932 215.686 323.53 204.822C323.328 198.685 322.825 192.448 322.222 186.311C322.222 188.021 321.92 189.732 322.121 191.341Z" fill="white" fill-opacity="0.56"/>
<path d="M295.462 277.254C290.231 288.32 281.881 297.877 271.519 304.315C265.685 307.937 259.347 310.452 252.808 312.464C245.665 314.677 238.321 316.689 231.078 318.399C222.728 320.512 214.177 322.322 205.727 323.831C205.425 323.932 206.029 328.861 205.727 328.861C220.817 326.045 235.706 322.524 250.393 318.198C257.033 316.186 263.673 313.872 269.709 310.351C274.94 307.333 279.769 303.51 283.893 299.184C288.621 294.154 292.545 288.42 295.563 282.183C295.865 281.579 295.563 280.272 295.563 279.668C295.563 279.064 295.563 278.461 295.563 277.857C295.462 277.757 295.362 277.354 295.462 277.254Z" fill="white" fill-opacity="0.56"/>
<path d="M173.133 323.027C147.379 324.033 120.217 320.612 99.091 304.617C93.7592 300.593 89.031 295.865 85.007 290.533C85.007 290.633 85.007 291.338 85.007 291.237C85.007 291.841 85.007 292.444 85.007 293.048C85.007 293.651 85.007 294.255 85.007 294.859C85.007 295.06 84.9064 295.462 85.007 295.563C99.9964 315.985 125.046 325.34 149.592 327.654C157.439 328.358 165.286 328.459 173.133 328.157C173.233 328.057 173.133 323.027 173.133 323.027Z" fill="white" fill-opacity="0.56"/>
<path d="M71.8284 269.206C65.39 260.655 60.36 251.098 56.9396 240.937C55.2294 235.806 53.9216 230.475 53.1168 225.143C52.7144 222.527 52.4126 219.912 52.2114 217.296C52.1108 215.888 52.0102 214.479 52.0102 213.171C52.0102 212.87 52.0102 212.668 52.0102 212.367C52.0102 212.165 52.0102 211.964 52.0102 211.763C52.0102 210.958 52.0102 211.26 52.0102 212.467C52.1108 211.763 52.0102 210.958 52.1108 210.254C52.312 204.017 53.2174 197.88 54.6258 191.844C54.827 191.14 54.6258 190.134 54.6258 189.329C54.6258 188.524 54.4246 187.518 54.6258 186.814C51.809 198.383 51.306 210.656 52.312 222.427C53.318 234.297 56.4366 245.967 61.4666 256.731C64.384 262.868 67.905 268.703 71.929 274.034C71.929 273.934 71.929 273.23 71.929 273.33C71.929 272.727 71.929 272.123 71.929 271.519C71.929 270.916 71.929 270.312 71.929 269.709C71.929 269.809 71.929 269.306 71.8284 269.206Z" fill="white" fill-opacity="0.56"/>
<path d="M59.6558 166.694C61.4666 155.226 65.7924 144.361 71.3254 134.2C74.0416 129.07 77.0596 124.14 80.1782 119.211C83.0956 114.684 86.013 110.056 89.4334 105.831C93.055 101.405 97.3808 97.4814 102.713 95.4694C102.914 95.3688 102.713 93.1556 102.713 92.9544C102.713 92.7532 102.511 90.4394 102.713 90.4394C92.7532 94.1616 86.8178 103.819 81.3854 112.37C75.0476 122.128 69.1122 132.188 64.7864 143.053C62.372 149.089 60.6618 155.326 59.6558 161.664C59.4546 163.374 59.9576 165.085 59.6558 166.694Z" fill="white" fill-opacity="0.56"/>
<path d="M127.762 88.025C148.687 80.7818 171.422 79.0716 193.253 83.0956C199.389 84.2022 205.526 85.8118 211.461 87.9244C211.361 87.9244 211.461 85.6106 211.461 85.4094C211.461 85.2082 211.662 82.995 211.461 82.8944C190.536 75.6512 167.7 74.0416 145.971 78.1662C139.834 79.3734 133.697 80.983 127.863 82.995C127.762 83.0956 127.863 85.3088 127.863 85.51C127.661 85.7112 127.863 87.9244 127.762 88.025Z" fill="white" fill-opacity="0.56"/>
<path d="M230.776 94.2622C246.269 102.411 260.655 112.571 273.531 124.442C277.153 127.762 280.674 131.283 284.094 134.905C283.893 134.603 284.094 132.792 284.094 132.39C284.094 131.786 284.094 131.182 284.094 130.579C284.094 130.478 284.195 129.975 284.094 129.875C272.123 117.098 258.542 105.932 243.653 96.6766C239.428 94.061 235.102 91.546 230.776 89.2322C230.877 89.3328 230.776 91.546 230.776 91.7472C230.776 91.9484 230.575 94.061 230.776 94.2622Z" fill="white" fill-opacity="0.56"/>
<path d="M293.752 153.516C297.172 162.972 300.593 172.529 303.108 182.287C304.416 187.116 305.422 191.945 306.126 196.874C306.528 199.389 306.83 201.804 307.031 204.319C307.132 205.727 307.232 207.035 307.232 208.443C307.232 209.449 307.232 209.349 307.232 208.041C307.232 208.443 307.232 208.846 307.232 209.248C307.232 209.852 307.132 210.556 307.132 211.159C307.031 212.165 307.132 213.272 307.132 214.278C307.132 214.781 307.132 215.284 307.132 215.787C307.132 215.787 307.132 216.29 307.132 216.089C307.635 207.236 307.232 198.283 305.723 189.53C304.214 180.577 301.599 171.724 298.782 163.173C297.172 158.244 295.362 153.415 293.651 148.586C293.853 149.19 293.651 150.397 293.651 151.101C293.651 151.705 293.45 152.811 293.752 153.516Z" fill="white" fill-opacity="0.56"/>
<path d="M305.321 230.877C296.77 248.784 286.207 266.389 271.117 279.567C266.892 283.29 262.365 286.509 257.536 289.326C257.335 289.426 257.536 291.539 257.536 291.841C257.536 292.142 257.737 294.255 257.536 294.356C274.94 284.296 287.615 268.099 297.374 250.896C300.19 245.967 302.806 240.937 305.22 235.806C305.522 235.203 305.22 233.895 305.22 233.291C305.22 232.688 305.22 232.084 305.22 231.481C305.321 231.481 305.22 231.078 305.321 230.877Z" fill="white" fill-opacity="0.56"/>
<path d="M234.599 299.687C223.332 303.51 211.562 305.723 199.892 307.836C193.856 308.943 187.72 310.049 181.583 310.452C175.648 310.854 169.712 310.351 163.777 309.345C157.137 308.138 150.699 306.327 144.16 304.516C144.26 304.516 144.16 306.83 144.16 307.031C144.16 307.232 144.059 309.546 144.16 309.546C155.628 312.765 167.298 315.985 179.269 315.683C185.506 315.482 191.542 314.476 197.679 313.369C203.514 312.363 209.349 311.256 215.183 310.049C221.722 308.641 228.261 307.031 234.599 304.919C234.7 304.919 234.599 302.605 234.599 302.404C234.7 302.001 234.499 299.788 234.599 299.687Z" fill="white" fill-opacity="0.56"/>
<path d="M118.104 295.261C113.376 292.444 108.648 289.627 104.322 286.207C100.499 283.189 96.8779 279.97 93.5581 276.449C86.9185 269.306 81.3855 261.158 77.2609 252.305C74.9471 247.275 73.0357 242.144 71.6273 236.812C71.8285 237.517 71.6273 238.623 71.6273 239.327C71.6273 240.132 71.4261 241.038 71.6273 241.842C76.5567 260.755 87.7233 277.857 102.914 290.231C107.642 294.054 112.873 297.273 118.104 300.392C117.903 300.291 118.104 298.178 118.104 297.877C118.104 297.575 118.306 295.462 118.104 295.261Z" fill="white" fill-opacity="0.56"/>
<path d="M68.1062 209.449C67.6032 207.135 67.3014 204.822 66.9996 202.508C66.899 201.301 66.7984 200.093 66.7984 198.886C66.7984 198.484 66.7984 198.081 66.7984 197.78C66.7984 197.578 66.6978 200.798 66.7984 199.49C66.7984 198.786 66.7984 197.981 66.899 197.277C67.2008 192.548 67.905 187.82 68.911 183.193C71.0236 174.038 74.3434 165.286 78.1662 156.634C80.3794 151.705 82.6932 146.876 85.007 142.047C85.3088 141.444 85.007 140.136 85.007 139.532C85.007 138.929 85.007 138.325 85.007 137.721C85.007 137.52 84.9064 137.118 85.007 137.017C75.8524 155.93 66.899 175.346 66.6978 196.774C66.6978 202.709 66.7984 208.644 68.1062 214.479C67.8044 212.87 68.5086 211.059 68.1062 209.449Z" fill="white" fill-opacity="0.56"/>
<path d="M96.6766 122.833C113.477 109.151 132.591 96.9784 154.522 94.3628C160.759 93.6586 166.996 93.7592 173.133 94.7652C172.931 94.7652 173.434 89.8358 173.133 89.7352C151.101 86.013 129.372 94.564 111.364 106.737C106.334 110.157 101.405 113.879 96.6766 117.803C96.3748 118.004 96.6766 120.016 96.6766 120.318C96.576 120.72 96.8778 122.631 96.6766 122.833Z" fill="white" fill-opacity="0.56"/>
<path d="M194.46 97.9844C214.68 101.908 236.008 106.133 252.003 120.116C256.027 123.637 259.447 127.661 262.264 132.188C262.264 132.088 262.264 131.484 262.264 131.484C262.264 130.881 262.264 130.277 262.264 129.673C262.264 129.07 262.264 128.466 262.264 127.863C262.264 127.661 262.365 127.259 262.264 127.158C251.601 109.855 231.984 101.505 212.97 96.8778C206.834 95.3688 200.697 94.1616 194.46 93.055C194.762 93.055 194.158 97.8838 194.46 97.9844Z" fill="white" fill-opacity="0.56"/>
<path d="M271.62 143.154C274.437 147.882 277.254 152.51 280.07 157.238C282.787 161.865 285.704 166.392 288.118 171.221C290.231 175.547 291.84 180.074 292.947 184.702C293.45 186.915 293.853 189.229 294.154 191.542C294.356 192.85 294.456 194.057 294.456 195.365C294.456 195.969 294.456 196.472 294.557 197.075C294.657 198.484 294.557 195.969 294.557 195.969C294.456 196.472 294.557 196.975 294.456 197.478C294.154 202.91 293.249 208.343 291.539 213.574C291.337 214.278 291.539 215.385 291.539 216.089C291.539 216.793 291.74 217.9 291.539 218.604C293.148 213.574 294.054 208.443 294.356 203.212C294.657 197.88 294.657 192.347 294.054 187.015C293.45 181.684 292.142 176.452 290.231 171.523C288.118 166.091 285.201 161.161 282.183 156.232C278.561 150.296 275.04 144.26 271.419 138.325C271.419 138.426 271.419 139.029 271.419 139.029C271.419 139.633 271.419 140.236 271.419 140.84C271.419 141.444 271.419 142.047 271.419 142.651C271.62 142.55 271.519 142.953 271.62 143.154Z" fill="white" fill-opacity="0.56"/>
<path d="M286.609 231.078C275.644 252.204 257.335 269.306 235.706 279.165C229.569 281.982 223.231 284.195 216.692 285.805C216.29 285.905 216.994 290.734 216.692 290.835C239.83 285.201 260.856 271.62 275.644 253.009C279.869 247.778 283.491 242.044 286.609 236.108C286.911 235.605 286.609 234.197 286.609 233.593C286.609 232.99 286.609 232.386 286.609 231.782C286.609 231.682 286.509 231.179 286.609 231.078Z" fill="white" fill-opacity="0.56"/>
<path d="M186.714 287.314C181.482 289.024 176.05 289.225 170.718 289.326C165.185 289.426 159.652 289.426 154.119 289.225C144.26 288.823 134.2 287.213 125.348 282.384C120.821 279.97 116.696 276.65 113.477 272.626C113.477 272.626 113.477 273.431 113.477 273.33C113.477 273.934 113.477 274.537 113.477 275.141C113.477 275.745 113.477 276.348 113.477 276.952C113.477 277.153 113.376 277.555 113.477 277.656C126.454 294.255 149.391 294.557 168.505 294.356C174.642 294.255 180.778 294.154 186.714 292.344C186.814 292.344 186.714 290.03 186.714 289.829C186.814 289.627 186.613 287.414 186.714 287.314Z" fill="white" fill-opacity="0.56"/>
<path d="M99.1916 257.033C94.564 250.494 89.9364 243.955 86.2142 236.913C82.3914 229.569 79.977 221.823 79.1722 213.674C78.6692 208.644 78.6692 203.916 78.7698 198.886C78.7698 197.78 78.7698 196.572 78.7698 195.466C78.7698 195.265 78.7698 193.655 78.7698 194.56C78.5686 204.319 78.1662 214.177 79.8764 223.835C81.486 232.99 85.51 241.44 90.4394 249.186C93.1556 253.613 96.1736 257.838 99.1916 262.063C99.1916 261.962 99.1916 261.258 99.1916 261.359C99.1916 260.755 99.1916 260.152 99.1916 259.548C99.1916 258.944 99.1916 258.341 99.1916 257.737C99.1916 257.637 99.2922 257.134 99.1916 257.033Z" fill="white" fill-opacity="0.56"/>
<path d="M85.7112 176.151C87.4214 166.895 91.6466 158.546 96.3748 150.498C100.6 143.355 104.725 135.911 110.358 129.774C113.477 126.454 116.998 123.637 121.223 121.927C121.424 121.827 121.223 119.613 121.223 119.412C121.223 119.211 121.022 116.998 121.223 116.897C113.779 120.116 108.447 126.454 104.02 133.094C99.091 140.438 94.4634 148.184 90.7412 156.131C88.528 160.859 86.7172 165.889 85.8118 171.121C85.4094 172.73 86.013 174.541 85.7112 176.151Z" fill="white" fill-opacity="0.56"/>
<path d="M140.337 115.489C159.652 110.056 180.275 105.328 200.093 111.062C205.224 112.571 210.053 114.684 214.479 117.601C214.278 117.501 214.479 115.388 214.479 115.086C214.479 114.785 214.68 112.773 214.479 112.571C197.679 101.606 176.654 102.109 157.741 106.133C151.906 107.34 146.071 108.95 140.337 110.559C140.236 110.559 140.337 112.873 140.337 113.074C140.337 113.175 140.438 115.489 140.337 115.489Z" fill="white" fill-opacity="0.56"/>
<path d="M228.161 125.146C236.712 129.774 244.86 135.206 252.405 141.343C256.128 144.361 259.649 147.58 263.069 151.001C266.389 154.32 269.608 157.741 272.324 161.463C275.443 165.789 277.857 170.618 278.058 176.05C278.058 176.352 278.058 175.648 278.058 175.748C278.058 175.245 278.058 174.742 278.058 174.239C278.058 173.233 278.058 172.127 278.058 171.121C277.656 161.664 271.016 154.119 264.679 147.58C257.838 140.538 250.293 134.2 242.245 128.567C237.718 125.448 232.99 122.531 228.06 119.915C228.161 120.016 228.06 122.229 228.06 122.43C228.161 122.933 227.96 125.046 228.161 125.146Z" fill="white" fill-opacity="0.56"/>
<path d="M280.07 192.951C280.171 194.057 280.272 195.164 280.372 196.371C280.372 196.774 280.372 197.277 280.473 197.679C280.573 198.685 280.573 195.466 280.473 196.673C280.473 196.975 280.473 197.377 280.473 197.679C280.372 199.792 280.171 202.005 279.869 204.117C279.266 208.141 278.36 212.065 277.052 215.988C274.437 223.734 270.513 231.078 265.383 237.416C262.465 241.038 259.146 244.357 255.625 247.275C255.323 247.476 255.625 249.488 255.625 249.79C255.625 250.092 255.926 252.104 255.625 252.305C270.01 240.635 279.064 222.93 280.372 204.419C280.775 198.987 280.775 193.353 280.171 187.921C280.272 189.631 279.869 191.341 280.07 192.951Z" fill="white" fill-opacity="0.56"/>
<path d="M235.404 261.258C220.012 271.922 201.502 277.757 182.79 277.958C177.458 278.058 172.127 277.555 166.895 276.751C167.097 276.751 166.594 281.68 166.895 281.781C185.305 284.799 204.62 282.183 221.521 274.336C226.35 272.123 230.978 269.407 235.404 266.389C235.605 266.188 235.404 264.176 235.404 263.874C235.404 263.371 235.102 261.359 235.404 261.258Z" fill="white" fill-opacity="0.56"/>
<path d="M136.414 269.407C132.088 267.294 127.863 265.182 123.537 263.069C119.915 261.258 116.193 259.548 112.873 257.335C109.553 255.122 106.737 252.506 104.624 249.086C102.31 245.464 100.701 241.339 99.091 237.416C97.1796 232.587 95.3688 227.758 93.8598 222.829C94.061 223.533 93.8598 224.64 93.8598 225.344C93.8598 226.048 93.6586 227.155 93.8598 227.859C95.2682 232.185 96.7772 236.41 98.3868 240.635C99.9964 244.659 101.606 248.784 103.719 252.607C105.731 256.128 108.246 259.045 111.565 261.359C114.785 263.673 118.306 265.483 121.827 267.194C126.655 269.608 131.585 272.022 136.414 274.336C136.313 274.236 136.414 272.022 136.414 271.821C136.514 271.721 136.715 269.507 136.414 269.407Z" fill="white" fill-opacity="0.56"/>
<path d="M93.3568 206.632C95.8718 189.43 101.103 172.73 108.648 157.137C108.95 156.534 108.648 155.226 108.648 154.622C108.648 154.019 108.648 153.415 108.648 152.811C108.648 152.61 108.547 152.208 108.648 152.107C101.002 167.7 95.8718 184.4 93.3568 201.602C93.055 203.212 93.558 204.922 93.3568 206.632Z" fill="white" fill-opacity="0.56"/>
<path d="M118.507 147.882C122.732 140.035 130.881 135.508 138.727 131.786C147.681 127.561 157.037 124.342 166.795 122.732C172.328 121.827 177.961 121.424 183.494 121.625C183.494 121.625 183.595 116.595 183.494 116.595C173.636 116.294 163.777 117.803 154.421 120.619C149.693 122.028 145.065 123.839 140.538 125.851C136.414 127.762 132.289 129.774 128.466 132.289C124.442 135.005 120.821 138.426 118.406 142.751C118.104 143.254 118.406 144.663 118.406 145.266C118.406 145.87 118.406 146.474 118.406 147.077C118.507 147.278 118.607 147.681 118.507 147.882Z" fill="white" fill-opacity="0.56"/>
<path d="M196.673 124.241C204.62 125.649 212.668 127.46 219.912 131.082C226.853 134.603 232.688 139.733 238.02 145.367C241.038 148.586 243.955 152.007 246.772 155.427C246.772 155.427 246.772 154.622 246.772 154.723C246.772 154.119 246.772 153.516 246.772 152.912C246.772 152.308 246.772 151.705 246.772 151.101C246.772 151.001 246.872 150.498 246.772 150.397C241.842 144.462 236.812 138.526 230.978 133.496C224.942 128.265 218 124.643 210.355 122.33C205.928 121.022 201.301 120.016 196.673 119.211C196.874 119.211 196.371 124.14 196.673 124.241Z" fill="white" fill-opacity="0.56"/>
<path d="M255.926 166.694C260.252 173.434 263.27 181.08 264.779 189.027C265.081 190.939 265.383 192.85 265.584 194.762C265.685 195.868 265.785 197.075 265.785 198.182C265.886 200.596 265.886 196.069 265.785 197.679C265.785 198.283 265.785 198.786 265.685 199.389C265.383 203.514 264.779 207.638 263.673 211.562C263.471 212.266 263.673 213.272 263.673 214.077C263.673 214.781 263.874 215.888 263.673 216.592C265.685 209.248 265.986 201.703 265.886 194.057C265.685 186.814 264.377 179.672 261.761 172.931C260.252 169.008 258.341 165.185 256.027 161.664C256.027 161.765 256.027 162.368 256.027 162.368C256.027 162.972 256.027 163.576 256.027 164.179C256.027 164.783 256.027 165.386 256.027 165.99C255.926 166.191 255.826 166.594 255.926 166.694Z" fill="white" fill-opacity="0.56"/>
<path d="M250.796 230.475C248.281 233.694 245.665 236.812 242.949 239.931C240.434 242.748 237.919 245.565 235.102 247.979C229.569 252.707 222.728 255.021 215.686 256.329C211.662 257.033 207.538 257.435 203.413 257.838C203.212 257.838 203.514 262.868 203.413 262.868C210.455 262.264 217.698 261.56 224.439 259.146C227.859 257.938 231.078 256.228 233.895 254.015C236.812 251.701 239.327 248.985 241.842 246.269C244.961 242.848 247.878 239.227 250.796 235.605C251.098 235.203 250.796 233.593 250.796 233.09C250.796 232.487 250.796 231.883 250.796 231.279C250.796 231.078 250.695 230.575 250.796 230.475Z" fill="white" fill-opacity="0.56"/>
<path d="M179.37 261.56C163.274 262.365 146.272 262.868 131.384 255.524C127.561 253.613 124.04 251.299 120.921 248.482C121.122 248.683 120.921 250.695 120.921 250.997C120.921 251.601 120.921 252.204 120.921 252.808C120.921 252.908 120.821 253.512 120.921 253.512C132.691 264.276 148.989 266.992 164.38 266.992C169.31 266.992 174.34 266.791 179.269 266.489C179.571 266.59 179.37 261.56 179.37 261.56Z" fill="white" fill-opacity="0.56"/>
<path d="M113.376 236.812C111.767 230.575 110.258 224.338 109.151 218.101C108.547 214.982 108.145 211.864 107.843 208.745C107.642 207.035 107.541 205.325 107.441 203.514C107.441 203.111 107.441 202.709 107.441 202.307C107.541 204.62 107.441 203.413 107.441 202.81C107.441 201.804 107.541 200.798 107.642 199.792C107.743 198.081 107.541 196.472 107.642 194.762C107.038 202.508 107.24 210.455 108.346 218.101C109.453 226.149 111.465 233.996 113.477 241.842C113.276 241.138 113.477 240.032 113.477 239.327C113.376 238.523 113.577 237.517 113.376 236.812Z" fill="white" fill-opacity="0.56"/>
<path d="M113.879 176.754C116.696 170.115 119.513 163.274 124.543 157.942C129.573 152.51 136.212 149.19 142.751 145.971C142.953 145.87 142.751 143.757 142.751 143.456C142.751 143.254 142.55 141.041 142.751 140.941C136.212 144.16 129.573 147.48 124.543 152.912C119.613 158.244 116.696 165.085 113.879 171.724C113.577 172.328 113.879 173.535 113.879 174.239C113.879 174.843 113.879 175.446 113.879 176.05C113.879 176.151 113.98 176.553 113.879 176.754Z" fill="white" fill-opacity="0.56"/>
<path d="M163.978 140.739C180.778 138.627 198.786 136.514 214.379 144.462C214.278 144.361 214.379 142.148 214.379 141.947C214.379 141.645 214.58 139.532 214.379 139.432C198.685 131.484 180.678 133.597 163.978 135.709C163.777 135.709 164.179 140.639 163.978 140.739Z" fill="white" fill-opacity="0.56"/>
<path d="M228.362 156.031C236.209 164.179 242.647 173.636 247.174 183.997C247.174 183.897 247.174 183.293 247.174 183.293C247.174 182.69 247.174 182.086 247.174 181.482C247.174 180.778 247.476 179.571 247.174 178.967C242.647 168.606 236.309 159.149 228.362 151.001C228.563 151.202 228.362 153.113 228.362 153.516C228.362 154.119 228.362 154.723 228.362 155.326C228.261 155.427 228.261 155.93 228.362 156.031Z" fill="white" fill-opacity="0.56"/>
<path d="M247.577 197.578C247.577 197.88 247.577 198.283 247.677 198.584C247.778 200.295 247.677 197.377 247.677 197.176C247.577 197.981 247.577 198.786 247.476 199.49C247.375 200.898 247.174 202.307 246.872 203.715C246.369 206.431 245.565 209.147 244.559 211.662C242.446 216.793 239.428 221.622 235.605 225.646C235.303 225.948 235.605 227.758 235.605 228.161C235.605 228.764 235.605 229.368 235.605 229.972C235.605 230.072 235.706 230.676 235.605 230.676C240.333 225.746 243.754 219.71 245.766 213.272C247.778 206.632 248.08 199.59 247.577 192.649C247.577 192.347 247.577 193.051 247.577 192.951C247.577 193.454 247.577 193.957 247.577 194.46C247.476 195.566 247.476 196.572 247.577 197.578Z" fill="white" fill-opacity="0.56"/>
<path d="M218.704 239.327C208.846 244.458 197.88 247.174 186.714 247.174V252.204C197.88 252.204 208.846 249.488 218.704 244.357C218.906 244.257 218.704 242.144 218.704 241.842C218.704 241.641 218.503 239.428 218.704 239.327Z" fill="white" fill-opacity="0.56"/>
<path d="M155.326 246.872C144.763 244.76 133.094 242.144 125.75 233.593C125.75 233.593 125.75 234.398 125.75 234.297C125.75 234.901 125.75 235.505 125.75 236.108C125.75 236.712 125.75 237.315 125.75 237.919C125.75 238.02 125.649 238.523 125.75 238.623C133.094 247.275 144.663 249.79 155.326 251.902C155.025 251.802 155.729 246.973 155.326 246.872Z" fill="white" fill-opacity="0.56"/>
<path d="M120.217 214.781C120.217 213.775 120.116 212.668 120.116 211.662C120.116 210.556 119.915 209.349 120.016 208.343C119.815 210.153 120.016 207.94 120.016 207.538C120.016 207.135 120.016 206.632 120.116 206.23C120.217 205.023 120.318 203.715 120.418 202.508C120.921 198.283 121.927 194.158 123.637 190.335C123.939 189.732 123.637 188.424 123.637 187.82C123.637 187.217 123.637 186.613 123.637 186.009C123.637 185.808 123.537 185.406 123.637 185.305C121.324 190.536 120.318 196.17 120.016 201.804C119.714 207.739 119.915 213.775 120.116 219.71C120.116 220.012 120.116 219.308 120.116 219.409C120.116 218.906 120.116 218.403 120.116 217.9C120.217 216.894 120.217 215.787 120.217 214.781Z" fill="white" fill-opacity="0.56"/>
<path d="M134.804 176.151C142.047 168.404 151.101 162.469 161.061 158.847C161.262 158.747 161.061 156.534 161.061 156.332C161.061 156.131 160.859 153.817 161.061 153.817C151.101 157.439 142.047 163.374 134.804 171.121C134.502 171.422 134.804 173.233 134.804 173.636C134.804 174.239 134.804 174.843 134.804 175.446C134.703 175.547 134.804 176.151 134.804 176.151Z" fill="white" fill-opacity="0.56"/>
<path d="M185.104 158.546C195.466 158.445 205.626 161.664 213.976 167.7C213.775 167.6 213.976 165.487 213.976 165.185C213.976 164.883 214.278 162.871 213.976 162.67C205.526 156.634 195.365 153.415 185.104 153.516V158.546Z" fill="white" fill-opacity="0.56"/>
<path d="M225.344 179.873C226.752 183.193 228.161 186.512 229.167 190.033C229.67 191.744 229.972 193.454 230.173 195.265C230.273 195.768 230.273 196.271 230.273 196.774C229.77 192.247 230.374 192.85 230.173 194.661C230.072 195.566 229.871 196.572 229.67 197.478C229.469 198.283 229.67 199.188 229.67 199.993C229.67 200.798 229.871 201.804 229.67 202.508C230.173 200.295 230.273 198.081 230.273 195.868C230.273 193.353 230.273 190.939 229.871 188.424C229.066 183.696 227.155 179.269 225.243 174.943C225.243 175.044 225.243 175.648 225.243 175.648C225.243 176.251 225.243 176.855 225.243 177.458C225.243 178.062 225.243 178.666 225.243 179.269C225.344 179.37 225.243 179.672 225.344 179.873Z" fill="white" fill-opacity="0.56"/>
<path d="M218.704 213.071C212.87 222.728 202.608 229.368 191.442 230.877C191.14 230.877 191.643 235.907 191.442 235.907C202.608 234.398 212.87 227.758 218.704 218.101C219.006 217.598 218.704 216.189 218.704 215.586C218.704 214.982 218.704 214.379 218.704 213.775C218.704 213.674 218.604 213.171 218.704 213.071Z" fill="white" fill-opacity="0.56"/>
<path d="M175.145 233.895C159.753 235.907 145.065 229.066 131.585 222.527C131.685 222.628 131.585 224.841 131.585 225.042C131.585 225.344 131.384 227.457 131.585 227.557C145.065 234.096 159.753 240.937 175.145 238.925C175.446 238.824 174.943 233.895 175.145 233.895Z" fill="white" fill-opacity="0.56"/>
<path d="M129.472 212.87C130.981 201.502 137.42 191.14 146.876 184.601C147.077 184.4 146.876 182.388 146.876 182.086C146.876 181.784 146.574 179.772 146.876 179.571C137.42 186.009 130.981 196.472 129.472 207.84C129.271 209.55 129.673 211.26 129.472 212.87Z" fill="white" fill-opacity="0.56"/>
<path d="M169.913 176.754C179.571 174.642 190.637 172.428 199.389 178.464C199.188 178.364 199.389 176.251 199.389 175.949C199.389 175.648 199.691 173.636 199.389 173.434C190.637 167.298 179.571 169.511 169.913 171.724C169.511 171.825 170.215 176.654 169.913 176.754Z" fill="white" fill-opacity="0.56"/>
<path d="M207.035 187.217C208.141 189.832 209.147 192.548 209.852 195.365C210.153 196.774 210.355 198.182 210.556 199.691C210.053 195.466 210.656 195.667 210.455 197.377C210.455 197.679 210.355 197.981 210.355 198.383C210.254 199.188 210.053 199.892 209.751 200.596C209.65 200.798 209.751 201.2 209.751 201.301C209.751 201.904 209.751 202.508 209.751 203.111C209.751 203.715 209.751 204.319 209.751 204.922C209.751 205.123 209.852 205.425 209.751 205.626C210.254 203.916 210.556 202.206 210.556 200.496C210.556 198.081 210.656 195.667 210.355 193.353C209.852 189.53 208.443 185.808 207.035 182.287C207.035 182.388 207.035 182.991 207.035 182.991C207.035 183.595 207.035 184.199 207.035 184.802C207.035 185.406 207.035 186.009 207.035 186.613C206.934 186.613 206.934 187.015 207.035 187.217Z" fill="white" fill-opacity="0.56"/>
<path d="M198.786 211.159C191.241 215.385 182.69 217.296 174.038 216.793C174.139 216.793 173.837 221.823 174.038 221.823C182.589 222.427 191.241 220.515 198.786 216.189C198.987 216.089 198.786 213.976 198.786 213.674C198.886 213.373 198.584 211.26 198.786 211.159Z" fill="white" fill-opacity="0.56"/>
<path d="M155.025 212.769C151.202 209.449 148.385 205.224 146.775 200.496C146.775 200.596 146.775 201.099 146.775 201.2C146.775 201.804 146.775 202.407 146.775 203.011C146.775 203.614 146.775 204.218 146.775 204.822C146.775 205.023 146.675 205.325 146.775 205.526C148.385 210.254 151.202 214.479 155.025 217.799C155.025 217.799 155.025 216.994 155.025 217.095C155.025 216.491 155.025 215.888 155.025 215.284C155.025 214.68 155.025 214.077 155.025 213.473C155.025 213.473 155.125 212.87 155.025 212.769Z" fill="white" fill-opacity="0.56"/>
<path d="M163.877 193.554C166.091 188.625 171.422 185.506 176.754 186.009C176.654 186.009 176.955 180.979 176.754 180.979C171.422 180.577 166.091 183.696 163.877 188.524C163.777 188.625 163.877 189.128 163.877 189.229C163.877 189.832 163.877 190.436 163.877 191.039C163.877 191.643 163.877 192.247 163.877 192.85C163.777 193.051 163.877 193.454 163.877 193.554Z" fill="white" fill-opacity="0.56"/>
<path d="M188.122 194.661C189.329 195.164 190.335 196.069 191.039 197.277C191.341 197.88 191.542 198.484 191.744 199.188C192.045 200.798 191.039 200.697 191.844 196.17C191.744 196.472 191.744 196.774 191.744 197.075C191.039 199.892 188.826 202.005 186.211 203.111C183.193 204.319 179.571 204.218 176.452 203.313C175.044 202.91 173.636 202.307 172.529 201.301C172.026 200.798 171.523 200.194 171.121 199.59C171.02 199.289 170.819 198.987 170.718 198.685C170.618 198.484 170.618 198.283 170.517 198.081C170.316 196.673 170.215 197.679 170.416 201.099C170.416 201.301 170.416 201.602 170.416 201.804C170.618 198.786 173.535 197.478 176.251 197.176C177.66 196.975 179.169 196.975 180.476 197.478C181.08 197.78 181.583 198.182 181.885 198.786C181.985 198.987 181.985 199.087 182.086 199.289C182.488 195.265 182.488 193.957 181.985 195.466C181.784 195.768 181.684 195.969 181.382 196.17C181.181 196.371 181.382 198.383 181.382 198.685C181.382 199.289 181.382 199.892 181.382 200.496C181.382 200.596 181.482 201.2 181.382 201.2C182.086 200.596 182.086 199.892 182.086 198.987C182.086 197.478 182.388 195.667 181.985 194.158C181.482 191.945 178.766 191.844 176.955 192.045C175.145 192.146 173.032 192.649 171.624 193.957C169.712 195.768 170.316 198.987 170.316 201.401C170.316 203.614 171.121 205.425 172.931 206.733C174.843 208.041 177.257 208.644 179.47 208.846C183.997 209.248 189.128 207.739 191.14 203.212C191.643 202.105 191.744 200.999 191.744 199.892C191.744 198.283 191.844 196.673 191.744 195.063C191.542 192.75 190.235 190.637 188.021 189.732C188.122 189.732 188.021 192.045 188.021 192.247C188.122 192.448 187.921 194.661 188.122 194.661Z" fill="white" fill-opacity="0.56"/>
</svg>
