<svg width="33" height="33" viewBox="0 0 33 33" fill="none" xmlns="http://www.w3.org/2000/svg">
<g clip-path="url(#clip0_65_633)">
<path d="M16.5 2.0625C19.3555 2.0625 22.1468 2.90925 24.521 4.49566C26.8953 6.08207 28.7458 8.3369 29.8385 10.975C30.9312 13.6131 31.2172 16.516 30.6601 19.3166C30.103 22.1172 28.728 24.6897 26.7088 26.7089C24.6897 28.728 22.1172 30.103 19.3166 30.6601C16.516 31.2172 13.6131 30.9312 10.975 29.8385C8.33689 28.7458 6.08206 26.8953 4.49565 24.521C2.90924 22.1468 2.06249 19.3555 2.06249 16.5C2.06249 12.6709 3.58358 8.9987 6.29114 6.29114C8.9987 3.58359 12.6709 2.0625 16.5 2.0625ZM16.5 0C13.2366 0 10.0465 0.967709 7.33309 2.78075C4.61967 4.5938 2.50483 7.17074 1.25598 10.1857C0.00713388 13.2007 -0.319621 16.5183 0.317035 19.719C0.953691 22.9197 2.52516 25.8597 4.83273 28.1673C7.1403 30.4748 10.0803 32.0463 13.281 32.683C16.4817 33.3196 19.7993 32.9929 22.8143 31.744C25.8293 30.4952 28.4062 28.3803 30.2192 25.6669C32.0323 22.9535 33 19.7634 33 16.5C33 12.1239 31.2616 7.92709 28.1673 4.83274C25.0729 1.73839 20.8761 0 16.5 0Z" fill="#1E1E1E"/>
<path d="M16.5 29.9062C12.9444 29.9062 9.53451 28.4938 7.02035 25.9796C4.50619 23.4655 3.09375 20.0556 3.09375 16.5H5.15625C5.15625 19.5085 6.35139 22.3939 8.47876 24.5212C10.6061 26.6486 13.4915 27.8438 16.5 27.8438C19.5085 27.8438 22.3939 26.6486 24.5212 24.5212C26.6486 22.3939 27.8438 19.5085 27.8438 16.5H29.9062C29.9062 20.0556 28.4938 23.4655 25.9796 25.9796C23.4655 28.4938 20.0556 29.9062 16.5 29.9062Z" fill="#1E1E1E"/>
<path d="M6.44531 13.9734C7.5844 13.9734 8.50781 13.05 8.50781 11.9109C8.50781 10.7718 7.5844 9.84839 6.44531 9.84839C5.30623 9.84839 4.38281 10.7718 4.38281 11.9109C4.38281 13.05 5.30623 13.9734 6.44531 13.9734Z" fill="#1E1E1E"/>
<path d="M26.8125 13.9734C27.9516 13.9734 28.875 13.05 28.875 11.9109C28.875 10.7718 27.9516 9.84839 26.8125 9.84839C25.6734 9.84839 24.75 10.7718 24.75 11.9109C24.75 13.05 25.6734 13.9734 26.8125 13.9734Z" fill="#1E1E1E"/>
</g>
<defs>
<clipPath id="clip0_65_633">
<rect width="33" height="33" fill="white"/>
</clipPath>
</defs>
</svg>
